# xmcd
#
# Track frame offsets: 
#        182
#        11002
#        23060
#        36832
#        49600
#        59955
#        71757
#        83282
#        96630
#        110105
#        124317
#        138635
#        148817
#        160817
#        173015
#        182880
#        192182
#
# Disc length: 2774 seconds
#
# Revision: 0
# Processed by: cddbd v1.5.1PL2 Copyright (c) Steve Scherf et al.
# Submitted via: ExactAudioCopy v0.95b4
#
DISCID=fc0ad411
DTITLE=Charley Pride - Legends (Charley Pride) [CD1]
DYEAR=2004
DGENRE=Country
TTITLE0=Mississippi Cotton Pickin' Delta Town
TTITLE1=My Eyes Can Only See As Far As You
TTITLE2=All I Have To Offer You Is Me
TTITLE3=She's Too Good To Be True
TTITLE4=Just Between You And Me
TTITLE5=She's Just An Old Love Turned Memory
TTITLE6=The Day The World Stood Still
TTITLE7=I Ain't All Bad
TTITLE8=All His Children
TTITLE9=A Shoulder To Cry On
TTITLE10=(I'm So) Afraid Of Losing You Again
TTITLE11=Is Anybody Goin' To San Antone
TTITLE12=It's Gonna Take A Little Bit Longer
TTITLE13=Let The Chips Fall
TTITLE14=Someone Loves You Honey
TTITLE15=Kiss An Angel Good Morning
TTITLE16=You're My Jamaica
EXTD=
EXTT0=
EXTT1=
EXTT2=
EXTT3=
EXTT4=
EXTT5=
EXTT6=
EXTT7=
EXTT8=
EXTT9=
EXTT10=
EXTT11=
EXTT12=
EXTT13=
EXTT14=
EXTT15=
EXTT16=
PLAYORDER=
